# xmcd
#
# Track frame offsets: 
#        150
#        16736
#        33121
#        57270
#        77403
#        97764
#        115914
#        133588
#        149731
#        164992
#        181473
#        204332
#        221442
#        233643
#        253877
#        270453
#        292967
#        308227
#        324746
#        342302
#
# Disc length: 4796 seconds
#
# Revision: 0
# Processed by: cddbd v1.5.2PL0 Copyright (c) Steve Scherf et al.
# Submitted via: ExactAudioCopy v1.0b3
#
DISCID=2012ba14
DTITLE=No Name - Perfect! ELECTRO R&B
DYEAR=2013
DGENRE=Electronic
TTITLE0=CHRIS BROWN - DON'T WAKE ME UP
TTITLE1=USHER - MORE (RedOne Jimmy Joker Remix)
TTITLE2=PITBULL ft. NE-YO, AFROJACK and NAYER - GIVE ME EVERYTHING (Jump
TTITLE2=Smokers Radio Mix)
TTITLE3=BRITNEY SPEARS - TILL THE WORLD ENDS (Jump Smokers Radio Remix
TTITLE3=)
TTITLE4=KESHA - WE R WHO WE R (Fred Falke Radio Mix)
TTITLE5=SIA - CLAP YOUR HANDS (Fred Falke Mix Edit)
TTITLE6=LEONA LEWIS - AVICII - COLLIDE (Afrojack Radio Edit)
TTITLE7=STEVE AOKI ft. RIVERS CUOMO - EARTHQUAKEY PEOPLE
TTITLE8=CALVIN HARRIS - FEEL SO CLOSE (Radio Edit)
TTITLE9=MARTIN SOLVEIG - THE NIGHT OUT (Madeon Remix)
TTITLE10=MICHAEL MIND PROJECT ft. DAVE THOMAS - FEELING SO BLUE (Exten
TTITLE10=ded Mix)
TTITLE11=ALEXANDRA BURKE ft. ERICK MORILLO - ELEPHANT
TTITLE12=MELANIE AMARO - RESPECT
TTITLE13=ADAM LAMBERT - NEVER CLOSE OUR EYES (R3hab Remix)
TTITLE14=KELLY CLARKSON - STRONGER (WHAT DOESN'T KILL YOU) (Nicky Rome
TTITLE14=ro Radio Mix)
TTITLE15=LABRINTH ft. TINIE TEMPAH - EARTHQUAKE (Benny Benassi Remix)
TTITLE16=BENNY BENASSI ft. PITBULL - PUT IT ON ME
TTITLE17=JLS ft. DEV - SHE MAKES ME WANNA
TTITLE18=RITA ORA - HOW WE DO (PARTY) (Paperchaser Radio Mix)
TTITLE19=MICHAEL JACKSON - HOLLYWOOD TONIGHT (Jody Den Broeder Radio)
EXTD=
EXTT0=
EXTT1=
EXTT2=
EXTT3=
EXTT4=
EXTT5=
EXTT6=
EXTT7=
EXTT8=
EXTT9=
EXTT10=
EXTT11=
EXTT12=
EXTT13=
EXTT14=
EXTT15=
EXTT16=
EXTT17=
EXTT18=
EXTT19=
PLAYORDER=
